<?xml version="1.0" standalone="no"?>
<!DOCTYPE svg PUBLIC "-//W3C//DTD SVG 20010904//EN"
 "http://www.w3.org/TR/2001/REC-SVG-20010904/DTD/svg10.dtd">
<svg version="1.0" xmlns="http://www.w3.org/2000/svg"
 width="256.000000pt" height="256.000000pt" viewBox="0 0 256.000000 256.000000"
 preserveAspectRatio="xMidYMid meet">
<metadata>
Created by potrace 1.11, written by Peter Selinger 2001-2013
</metadata>
<g transform="translate(0.000000,256.000000) scale(0.100000,-0.100000)"
fill="#000000" stroke="none">
<path d="M0 1280 l0 -1280 1280 0 1280 0 0 1280 0 1280 -1280 0 -1280 0 0
-1280z m710 297 c116 -126 180 -203 176 -212 -39 -102 -559 -125 -698 -32 -18
13 -33 29 -33 37 0 15 356 410 366 407 4 -1 89 -91 189 -200z m1521 -4 c99
-108 178 -201 176 -207 -8 -23 -71 -55 -139 -71 -185 -42 -446 -25 -565 37
-50 26 -42 39 148 247 101 110 187 197 191 195 5 -3 90 -94 189 -201z m-832
55 c61 -67 111 -128 111 -136 0 -20 -61 -41 -147 -52 -130 -17 -320 18 -311
56 4 15 218 254 229 254 3 0 57 -55 118 -122z m-393 -126 c-15 -18 -15 -20 2
-36 26 -23 117 -53 201 -68 81 -14 184 -2 272 32 76 29 96 45 79 65 -20 24 -6
28 51 16 81 -18 84 -24 42 -88 -43 -63 -41 -69 30 -123 32 -24 47 -42 47 -58
0 -22 0 -22 -37 -6 -226 100 -529 104 -786 11 l-67 -25 0 24 c0 17 14 33 54
59 82 54 82 54 31 112 -25 28 -45 56 -45 61 0 13 76 38 124 41 18 1 18 0 2
-17z m-636 -271 c130 -21 337 -8 388 25 l22 14 0 -219 c0 -163 -3 -221 -12
-228 -36 -29 -98 -38 -248 -38 -150 0 -212 9 -247 38 -10 7 -13 65 -13 228 l0
219 23 -14 c12 -8 51 -20 87 -25z m1530 -2 c94 -15 289 -6 349 15 24 9 45 16
47 16 2 0 4 -94 4 -209 0 -235 1 -231 -73 -253 -59 -18 -329 -17 -382 1 -68
23 -65 12 -65 252 l0 219 23 -14 c12 -8 56 -20 97 -27z m-428 17 c40 -8 114
-29 163 -48 l90 -33 3 -159 c2 -148 1 -158 -15 -153 -10 3 -54 19 -98 35 -122
45 -201 55 -366 49 -152 -5 -282 -33 -369 -77 l-40 -20 0 160 0 161 48 20 c54
23 174 57 241 69 77 13 265 11 343 -4z"/>
</g>
</svg>
